<svg width="263" height="264" viewBox="0 0 263 264" fill="none" xmlns="http://www.w3.org/2000/svg">
<path d="M148 154.5C159 153 154.243 133.256 149.546 135.961C141.058 140.85 147.356 160.011 157.443 168.115C192.428 196.218 254.846 171.593 254.846 171.593" stroke="white" stroke-width="2" stroke-linecap="round"/>
<path d="M12.9859 77.5114C12.9859 77.5114 14.7382 113.414 37.308 126.338C53.2318 135.456 73.977 129.988 73.4958 117.778C73.2413 111.32 66.3035 110.106 62.0894 112.593C54.473 117.087 59.0025 136.407 67.3688 144.896C96.385 174.339 151.835 152.545 151.835 152.545" stroke="white" stroke-width="2" stroke-linecap="round"/>
<path d="M250.549 180.368L255.726 171.634L245.168 166.241" stroke="white" stroke-width="2" stroke-linecap="round" stroke-linejoin="round"/>
</svg>
